<svg width="999" height="197" viewBox="0 0 999 197" fill="none" xmlns="http://www.w3.org/2000/svg">
<path d="M160.78 86.3201C160.78 58.7701 146.62 33.3801 123.92 18.7401C118.28 15.1001 110.72 17.3501 108.02 23.4901L107.79 24.0201C105.62 28.9601 107.44 34.6801 111.97 37.6201C128.63 48.4401 139.39 67.5601 138.37 89.1301C136.97 118.83 112.84 142.93 83.14 144.3C49.83 145.84 22.35 119.29 22.35 86.3201C22.35 71.4301 27.96 57.8601 37.17 47.5801C40.71 43.6401 40.75 37.6601 37.4 33.5601L37.03 33.1101C32.81 27.9301 24.95 27.7201 20.5 32.7001C7.4 47.3301 0 66.4101 0 86.3301C0 113.27 13.55 137.27 34.15 151.89L48.56 163.42C55.2 168.74 61.33 174.66 66.87 181.13L80.33 196.85L92.71 182.48C99.05 175.12 106.07 168.37 113.67 162.31L127.62 151.19C129.37 149.91 131.05 148.56 132.69 147.15L134.16 145.98H134.04C150.41 131.21 160.78 109.88 160.78 86.3201Z" fill="#0A0A12"/>
<path d="M52.1002 28.38C59.9371 28.38 66.2902 22.0269 66.2902 14.19C66.2902 6.35308 59.9371 0 52.1002 0C44.2632 0 37.9102 6.35308 37.9102 14.19C37.9102 22.0269 44.2632 28.38 52.1002 28.38Z" fill="#0A0A12"/>
<path d="M80.3902 43.8401C56.9302 43.8401 37.9102 62.8601 37.9102 86.3201C37.9102 109.78 56.9302 128.8 80.3902 128.8C103.85 128.8 122.87 109.78 122.87 86.3201C122.88 62.8601 103.85 43.8401 80.3902 43.8401ZM80.3902 103.31C71.0102 103.31 63.4002 95.7001 63.4002 86.3201C63.4002 76.9401 71.0102 69.3301 80.3902 69.3301C89.7702 69.3301 97.3802 76.9401 97.3802 86.3201C97.3802 95.7001 89.7702 103.31 80.3902 103.31Z" fill="url(#paint0_linear)"/>
<path d="M97.89 75.2201C96.14 72.0601 93.57 69.4301 90.48 67.5801L99.47 52.5601C105.2 56.0001 109.95 60.9001 113.19 66.7601L97.89 75.2201Z" fill="white"/>
<path d="M255.323 119.041V137.53H201.03V58.3792H224.273V119.041H255.323Z" fill="#161616"/>
<path d="M269.646 68.0348C276.806 60.6978 286.52 57 298.758 57C310.996 57 320.711 60.6685 327.871 68.0348C335.032 75.401 338.613 85.3793 338.613 97.9694C338.613 110.56 335.032 120.567 327.871 127.875C320.711 135.182 310.996 138.88 298.758 138.88C286.462 138.88 276.748 135.212 269.616 127.875C262.455 120.538 258.904 110.56 258.904 97.9694C258.904 85.3793 262.485 75.401 269.646 68.0348ZM310.498 81.6521C307.533 77.6021 303.63 75.5771 298.758 75.5771C293.887 75.5771 289.984 77.6021 287.019 81.6521C284.055 85.7021 282.588 91.1607 282.588 97.9987C282.588 104.807 284.055 110.237 286.99 114.287C289.925 118.337 293.857 120.391 298.758 120.391C303.66 120.391 307.592 118.366 310.527 114.287C313.462 110.207 314.929 104.807 314.929 97.9987C314.929 91.1607 313.462 85.7021 310.498 81.6521Z" fill="#161616"/>
<path d="M385.039 138.909C372.831 138.909 363.234 135.329 356.249 128.139C349.264 120.949 345.772 110.882 345.772 97.94C345.772 84.9976 349.264 74.9314 356.249 67.7705C363.234 60.6097 372.831 57.0293 385.039 57.0293C391.936 57.0293 398.187 58.4086 403.763 61.1967C409.339 63.9847 413.741 67.9173 416.94 72.9944C420.168 78.0716 421.753 83.8237 421.753 90.2802H399.478C399.214 85.79 397.747 82.1509 395.076 79.4216C392.405 76.6922 389.03 75.3129 384.981 75.3129C380.197 75.3129 376.411 77.3379 373.594 81.3585C370.776 85.3792 369.397 90.8965 369.397 97.9106C369.397 105.042 370.776 110.618 373.564 114.639C376.352 118.659 380.167 120.684 385.039 120.684C389.06 120.684 392.405 119.334 395.047 116.605C397.688 113.876 399.214 110.237 399.566 105.658H421.841C421.812 112.144 420.198 117.896 417.028 123.003C413.859 128.08 409.486 132.013 403.91 134.801C398.392 137.501 392.083 138.909 385.039 138.909Z" fill="#161616"/>
<path d="M477.397 137.53L473.289 121.8H449.165L445.056 137.53H421.373L447.199 58.3792H476.37L502.196 137.53H477.397ZM460.992 76.6628L453.362 105.394H469.033L461.403 76.6628H460.992Z" fill="#161616"/>
<path d="M563.592 119.041V137.53H509.298V58.3792H532.542V119.041H563.592Z" fill="#161616"/>
<path d="M615.654 137.53H605.793V58.3792H615.654V137.53Z" fill="#161616"/>
<path d="M697.74 104.778C697.74 115.49 694.776 123.854 688.877 129.841C682.978 135.828 674.731 138.821 664.166 138.821C653.132 138.821 644.327 135.094 637.753 127.61C631.179 120.127 627.922 110.119 627.922 97.5291C627.922 85.1737 631.179 75.3422 637.724 68.0347C644.269 60.7271 653.073 57.0586 664.166 57.0586C672.736 57.0586 680.014 59.4064 686.03 64.102C692.047 68.7977 695.774 75.0781 697.241 82.9432H686.881C685.238 77.602 682.421 73.464 678.459 70.5586C674.497 67.6238 669.742 66.1564 664.166 66.1564C656.008 66.1564 649.61 68.915 645.002 74.4618C640.365 80.0085 638.076 87.6683 638.076 97.4704C638.076 107.419 640.424 115.284 645.09 121.066C649.757 126.847 656.125 129.723 664.166 129.723C671.18 129.723 676.903 127.64 681.276 123.502C685.649 119.364 687.85 113.964 687.85 107.361V105.923H665.516V97.2649H697.711V104.778H697.74Z" fill="#161616"/>
<path d="M720.132 137.53H710.359V58.3792H719.956L763.273 120.508H763.772V58.3792H773.544V137.53H763.948L720.631 75.6062H720.132V137.53Z" fill="#161616"/>
<path d="M798.755 137.53H788.894V58.3792H798.755V137.53Z" fill="#161616"/>
<path d="M844.009 137.53H834.148V67.2715H809.203V58.3792H868.984V67.2715H844.038V137.53H844.009Z" fill="#161616"/>
<path d="M928.414 128.638V137.53H879.374V58.3792H928.414V67.2715H889.264V92.6573H926.389V101.432H889.264V128.638H928.414Z" fill="#161616"/>
<path d="M951.274 106.216V137.53H941.414V58.3792H971.084C978.715 58.3792 984.848 60.5215 989.426 64.8356C994.005 69.1204 996.323 74.8432 996.323 81.9747C996.323 87.4921 994.914 92.2757 992.097 96.2964C989.28 100.317 985.376 103.105 980.417 104.69L998.73 137.53H987.167L970.233 106.216H951.274ZM951.274 67.1835V97.4996H970.204C975.281 97.4996 979.213 96.179 981.972 93.5377C984.731 90.8964 986.11 87.1693 986.11 82.2976C986.11 77.5432 984.672 73.8454 981.767 71.1748C978.891 68.5041 974.87 67.1835 969.763 67.1835H951.274Z" fill="#161616"/>
<defs>
<linearGradient id="paint0_linear" x1="80.3917" y1="44.0001" x2="80.3917" y2="129.445" gradientUnits="userSpaceOnUse">
<stop stop-color="#274597"/>
<stop offset="1" stop-color="#50C0DB"/>
</linearGradient>
</defs>
</svg>
