<svg width="999" height="197" viewBox="0 0 999 197" fill="none" xmlns="http://www.w3.org/2000/svg">
<path d="M160.78 86.3201C160.78 58.7701 146.62 33.3801 123.92 18.7401C118.28 15.1001 110.72 17.3501 108.02 23.4901L107.79 24.0201C105.62 28.9601 107.44 34.6801 111.97 37.6201C128.63 48.4401 139.39 67.5601 138.37 89.1301C136.97 118.83 112.84 142.93 83.14 144.3C49.83 145.84 22.35 119.29 22.35 86.3201C22.35 71.4301 27.96 57.8601 37.17 47.5801C40.71 43.6401 40.75 37.6601 37.4 33.5601L37.03 33.1101C32.81 27.9301 24.95 27.7201 20.5 32.7001C7.4 47.3301 0 66.4101 0 86.3301C0 113.27 13.55 137.27 34.15 151.89L48.56 163.42C55.2 168.74 61.33 174.66 66.87 181.13L80.33 196.85L92.71 182.48C99.05 175.12 106.07 168.37 113.67 162.31L127.62 151.19C129.37 149.91 131.05 148.56 132.69 147.15L134.16 145.98H134.04C150.41 131.21 160.78 109.88 160.78 86.3201Z" fill="white"/>
<path d="M52.1002 28.38C59.9371 28.38 66.2902 22.0269 66.2902 14.19C66.2902 6.35308 59.9371 0 52.1002 0C44.2632 0 37.9102 6.35308 37.9102 14.19C37.9102 22.0269 44.2632 28.38 52.1002 28.38Z" fill="white"/>
<path d="M80.3902 43.8401C56.9302 43.8401 37.9102 62.8601 37.9102 86.3201C37.9102 109.78 56.9302 128.8 80.3902 128.8C103.85 128.8 122.87 109.78 122.87 86.3201C122.88 62.8601 103.85 43.8401 80.3902 43.8401ZM80.3902 103.31C71.0102 103.31 63.4002 95.7001 63.4002 86.3201C63.4002 76.9401 71.0102 69.3301 80.3902 69.3301C89.7702 69.3301 97.3802 76.9401 97.3802 86.3201C97.3802 95.7001 89.7702 103.31 80.3902 103.31Z" fill="url(#paint0_linear)"/>
<path d="M97.89 75.2201C96.14 72.0601 93.57 69.4301 90.48 67.5801L99.47 52.5601C105.2 56.0001 109.95 60.9001 113.19 66.7601L97.89 75.2201Z" fill="white"/>
<path d="M255.323 119.041V137.53H201.03V58.3792H224.273V119.041H255.323Z" fill="white"/>
<path d="M269.646 68.0348C276.807 60.6979 286.521 57 298.759 57C310.997 57 320.711 60.6685 327.872 68.0348C335.033 75.4012 338.613 85.3794 338.613 97.9697C338.613 110.56 335.033 120.568 327.872 127.875C320.711 135.183 310.997 138.881 298.759 138.881C286.462 138.881 276.748 135.212 269.616 127.875C262.455 120.538 258.904 110.56 258.904 97.9697C258.904 85.3794 262.485 75.4012 269.646 68.0348ZM310.498 81.6523C307.534 77.6023 303.63 75.5772 298.759 75.5772C293.887 75.5772 289.984 77.6023 287.02 81.6523C284.055 85.7023 282.588 91.161 282.588 97.999C282.588 104.808 284.055 110.237 286.99 114.287C289.925 118.337 293.858 120.391 298.759 120.391C303.66 120.391 307.592 118.366 310.527 114.287C313.462 110.208 314.929 104.808 314.929 97.999C314.929 91.161 313.462 85.7023 310.498 81.6523Z" fill="white"/>
<path d="M385.04 138.91C372.832 138.91 363.235 135.329 356.25 128.139C349.265 120.949 345.773 110.883 345.773 97.9402C345.773 84.9978 349.265 74.9315 356.25 67.7706C363.235 60.6097 372.832 57.0293 385.04 57.0293C391.937 57.0293 398.188 58.4086 403.764 61.1967C409.341 63.9847 413.743 67.9173 416.942 72.9945C420.17 78.0717 421.755 83.8239 421.755 90.2804H399.48C399.215 85.7902 397.748 82.1511 395.077 79.4217C392.407 76.6924 389.032 75.313 384.982 75.313C380.198 75.313 376.412 77.338 373.595 81.3587C370.777 85.3794 369.398 90.8968 369.398 97.9109C369.398 105.042 370.777 110.619 373.565 114.639C376.353 118.66 380.169 120.685 385.04 120.685C389.061 120.685 392.407 119.335 395.048 116.606C397.689 113.876 399.215 110.237 399.568 105.659H421.843C421.813 112.145 420.199 117.897 417.03 123.003C413.86 128.081 409.487 132.013 403.911 134.801C398.394 137.501 392.084 138.91 385.04 138.91Z" fill="white"/>
<path d="M477.399 137.53L473.29 121.8H449.166L445.058 137.53H421.374L447.2 58.3792H476.372L502.198 137.53H477.399ZM460.994 76.6629L453.363 105.395H469.035L461.405 76.6629H460.994Z" fill="white"/>
<path d="M563.594 119.041V137.53H509.3V58.3792H532.544V119.041H563.594Z" fill="white"/>
<path d="M615.657 137.53H605.796V58.3792H615.657V137.53Z" fill="white"/>
<path d="M697.743 104.779C697.743 115.49 694.779 123.855 688.88 129.842C682.981 135.829 674.734 138.822 664.169 138.822C653.134 138.822 644.33 135.095 637.756 127.611C631.182 120.127 627.924 110.12 627.924 97.5296C627.924 85.1741 631.182 75.3426 637.727 68.035C644.271 60.7273 653.075 57.0588 664.169 57.0588C672.739 57.0588 680.017 59.4067 686.033 64.1023C692.049 68.798 695.777 75.0784 697.244 82.9437H686.884C685.241 77.6023 682.423 73.4643 678.461 70.5589C674.499 67.6241 669.745 66.1567 664.169 66.1567C656.01 66.1567 649.612 68.9154 645.005 74.4621C640.368 80.0089 638.079 87.6687 638.079 97.4709C638.079 107.42 640.426 115.285 645.093 121.067C649.759 126.848 656.128 129.724 664.169 129.724C671.183 129.724 676.906 127.641 681.279 123.502C685.652 119.364 687.853 113.964 687.853 107.361V105.923H665.519V97.2655H697.714V104.779H697.743Z" fill="white"/>
<path d="M720.135 137.53H710.362V58.3792H719.959L763.276 120.509H763.775V58.3792H773.548V137.53H763.951L720.634 75.6064H720.135V137.53Z" fill="white"/>
<path d="M798.759 137.53H788.898V58.3792H798.759V137.53Z" fill="white"/>
<path d="M844.013 137.53H834.152V67.2716H809.206V58.3792H868.988V67.2716H844.042V137.53H844.013Z" fill="white"/>
<path d="M928.418 128.638V137.53H879.377V58.3792H928.418V67.2716H889.268V92.6575H926.393V101.433H889.268V128.638H928.418Z" fill="white"/>
<path d="M951.279 106.216V137.53H941.418V58.3792H971.089C978.719 58.3792 984.853 60.5215 989.431 64.8357C994.009 69.1205 996.328 74.8433 996.328 81.9749C996.328 87.4923 994.919 92.276 992.102 96.2966C989.284 100.317 985.381 103.105 980.421 104.69L998.734 137.53H987.171L970.238 106.216H951.279ZM951.279 67.1835V97.4999H970.208C975.285 97.4999 979.218 96.1792 981.977 93.5379C984.735 90.8966 986.115 87.1695 986.115 82.2977C986.115 77.5434 984.677 73.8455 981.771 71.1748C978.895 68.5042 974.875 67.1835 969.768 67.1835H951.279Z" fill="white"/>
<defs>
<linearGradient id="paint0_linear" x1="80.3918" y1="44.0001" x2="80.3918" y2="129.445" gradientUnits="userSpaceOnUse">
<stop stop-color="#274597"/>
<stop offset="1" stop-color="#50C0DB"/>
</linearGradient>
</defs>
</svg>
