<?xml version="1.0" encoding="utf-8"?>
<!-- Generator: Adobe Illustrator 22.1.0, SVG Export Plug-In . SVG Version: 6.00 Build 0)  -->
<svg version="1.1" id="Layer_1" xmlns="http://www.w3.org/2000/svg" xmlns:xlink="http://www.w3.org/1999/xlink" x="0px" y="0px"
	 viewBox="0 0 340.2 340.2" style="enable-background:new 0 0 340.2 340.2;" xml:space="preserve">
<style type="text/css">
	.st0{fill:#FFFFFF;}
	.st1{fill:#0A0A0A;}
</style>
<g id="_x37_">
	<rect x="60.3" y="90.4" class="st0" width="223" height="149.7"/>
	<path class="st1" d="M298,254.8H45.6V75.7H298V254.8z M60.3,240.1h223V90.4h-223L60.3,240.1L60.3,240.1z"/>
	<path class="st1" d="M120,132.3v25.3h-12.3v-20.9c0-4.6-2.3-7.1-6.1-7.1c-3.4,0-6.2,2.3-6.2,7.3v20.7H83.1V119h11.8v4.8
		c2.4-4,6.3-5.9,11.5-5.9C114.1,118,120,123.4,120,132.3z"/>
	<path class="st1" d="M168.4,138.3c0,11.7-8.9,20.3-20.9,20.3s-20.9-8.6-20.9-20.3s8.9-20.3,20.9-20.3S168.4,126.6,168.4,138.3z
		 M138.6,138.3c0,5.2,3.7,8.8,8.8,8.8s8.8-3.6,8.8-8.8s-3.7-8.8-8.8-8.8C142.4,129.4,138.6,133.1,138.6,138.3z"/>
	<path class="st1" d="M108.1,170.4v-4H120v34.8c0,12.6-8.3,20.2-20.9,20.2c-6.4,0-13-1.6-17.6-4.9l4.4-9.8c3.8,2.7,7.8,3.9,12.4,3.9
		c5,0,9.7-2.7,9.7-8.9v-2.4c-2.3,2.9-5.6,4.9-10.6,4.9c-10.3,0-17.9-8.5-17.9-19.4s7.5-19.5,17.9-19.5
		C102.4,165.3,105.9,167.4,108.1,170.4z M92.2,184.8c0,4.7,3.3,8.2,8.1,8.2c4.6,0,7.8-3.5,7.8-8.2s-3.2-8.2-7.8-8.2
		C95.5,176.5,92.2,180.1,92.2,184.8z"/>
	<path class="st1" d="M168.4,185.6c0,11.7-8.9,20.3-20.9,20.3s-20.9-8.6-20.9-20.3s8.9-20.3,20.9-20.3S168.4,173.9,168.4,185.6z
		 M138.6,185.6c0,5.2,3.7,8.8,8.8,8.8s8.8-3.6,8.8-8.8s-3.7-8.8-8.8-8.8C142.4,176.8,138.6,180.4,138.6,185.6z"/>
	<path class="st1" d="M216.3,185.6c0,11.7-8.9,20.3-20.9,20.3s-20.9-8.6-20.9-20.3s8.9-20.3,20.9-20.3
		C207.4,165.3,216.3,173.9,216.3,185.6z M186.6,185.6c0,5.2,3.7,8.8,8.8,8.8s8.8-3.6,8.8-8.8s-3.7-8.8-8.8-8.8
		S186.6,180.4,186.6,185.6z"/>
	<path class="st1" d="M251.3,170.1v-21.7h12.2v56.5h-11.8v-4.2c-2.3,3-5.8,5.2-11.1,5.2c-10.3,0-17.9-8.9-17.9-20.3
		c0-11.3,7.6-20.2,17.9-20.2C245.6,165.3,249,167.3,251.3,170.1z M235.4,185.6c0,5,3.3,8.8,8.2,8.8c4.8,0,8.2-3.7,8.2-8.8
		s-3.4-8.8-8.2-8.8C238.7,176.8,235.4,180.6,235.4,185.6z"/>
</g>
</svg>
